<?xml version="1.0" encoding="UTF-8"?>
<svg xmlns="http://www.w3.org/2000/svg" viewBox="0 0 880 540" font-family="ui-sans-serif, system-ui, -apple-system, 'Segoe UI', sans-serif">
  <!-- Theme: dark backdrop so it pops on both light and dark GitHub READMEs -->
  <defs>
    <style>
      .title       { font-size: 22px; font-weight: 700; fill: #f3f4f6; }
      .subtitle    { font-size: 13px; fill: #9ca3af; }
      .scenario    { font-size: 14px; font-weight: 600; fill: #e5e7eb; }
      .scenarioSub { font-size: 11px; fill: #9ca3af; }
      .barLabel    { font-size: 12px; font-weight: 600; fill: #ffffff; }
      .speedup     { font-size: 16px; font-weight: 700; fill: #10b981; }
      .speedupRev  { font-size: 16px; font-weight: 700; fill: #f97316; }
      .legend      { font-size: 12px; fill: #d1d5db; }
      .footnote    { font-size: 11px; fill: #6b7280; }
    </style>
  </defs>

  <!-- background -->
  <rect width="880" height="540" fill="#0f172a" rx="8"/>

  <!-- title -->
  <text x="40" y="40" class="title">Pilates vs WASM Yoga — flex layout latency</text>
  <text x="40" y="60" class="subtitle">Mean time per layout pass · lower is better · pure-TS Pilates beats WASM Yoga across every workload</text>

  <!-- legend -->
  <g transform="translate(620, 35)">
    <rect width="14" height="14" fill="#10b981" rx="2"/>
    <text x="22" y="11" class="legend">@pilates/core (pure TS)</text>
    <rect y="22" width="14" height="14" fill="#f97316" rx="2"/>
    <text x="22" y="33" class="legend">yoga-layout (WASM)</text>
  </g>

  <!-- chart area starts at y=100 -->
  <!-- Each row: 56 tall. Layout per row: scenario col (180px wide), bar area (520px), speedup col (right-aligned).
       Bar area: 4 cells wide and 2 stacked bars (Pilates 18 tall + 4 gap + Yoga 18 tall = 40).
       Bars are normalized within-row to the slower of the two, full bar width = 480px. -->

  <!-- ROW 1: tiny -->
  <g transform="translate(0, 100)">
    <text x="40" y="14" class="scenario">tiny</text>
    <text x="40" y="30" class="scenarioSub">10 nodes, 1 level</text>
    <!-- Pilates 1.5µs / Yoga 15.1µs (10×). Pilates bar = 1.5/15.1 * 480 = 48 -->
    <rect x="220" y="2" width="48" height="18" fill="#10b981" rx="2"/>
    <text x="274" y="15" class="barLabel" fill="#10b981">1.5µs</text>
    <rect x="220" y="26" width="480" height="18" fill="#f97316" rx="2"/>
    <text x="708" y="39" class="barLabel" fill="#f97316">15.1µs</text>
    <text x="780" y="28" class="speedup">10× faster</text>
  </g>

  <!-- ROW 2: realistic -->
  <g transform="translate(0, 156)">
    <text x="40" y="14" class="scenario">realistic</text>
    <text x="40" y="30" class="scenarioSub">~100 nodes, 3-4 levels</text>
    <!-- Pilates 29µs / Yoga 263µs (9×). Pilates bar = 29/263 * 480 = 53 -->
    <rect x="220" y="2" width="53" height="18" fill="#10b981" rx="2"/>
    <text x="279" y="15" class="barLabel" fill="#10b981">29µs</text>
    <rect x="220" y="26" width="480" height="18" fill="#f97316" rx="2"/>
    <text x="708" y="39" class="barLabel" fill="#f97316">263µs</text>
    <text x="780" y="28" class="speedup">9× faster</text>
  </g>

  <!-- ROW 3: stress -->
  <g transform="translate(0, 212)">
    <text x="40" y="14" class="scenario">stress</text>
    <text x="40" y="30" class="scenarioSub">~1,000 nodes, 2 levels</text>
    <!-- Pilates 171µs / Yoga 1.52ms (9×). Pilates bar = 171/1520 * 480 = 54 -->
    <rect x="220" y="2" width="54" height="18" fill="#10b981" rx="2"/>
    <text x="280" y="15" class="barLabel" fill="#10b981">171µs</text>
    <rect x="220" y="26" width="480" height="18" fill="#f97316" rx="2"/>
    <text x="708" y="39" class="barLabel" fill="#f97316">1.52ms</text>
    <text x="780" y="28" class="speedup">9× faster</text>
  </g>

  <!-- ROW 4: big -->
  <g transform="translate(0, 268)">
    <text x="40" y="14" class="scenario">big</text>
    <text x="40" y="30" class="scenarioSub">~5,000 nodes</text>
    <!-- Pilates 0.94ms / Yoga 7.26ms (8×). Pilates bar = 940/7260 * 480 = 62 -->
    <rect x="220" y="2" width="62" height="18" fill="#10b981" rx="2"/>
    <text x="288" y="15" class="barLabel" fill="#10b981">0.94ms</text>
    <rect x="220" y="26" width="480" height="18" fill="#f97316" rx="2"/>
    <text x="708" y="39" class="barLabel" fill="#f97316">7.26ms</text>
    <text x="780" y="28" class="speedup">8× faster</text>
  </g>

  <!-- ROW 5: huge -->
  <g transform="translate(0, 324)">
    <text x="40" y="14" class="scenario">huge</text>
    <text x="40" y="30" class="scenarioSub">~10,000 nodes</text>
    <!-- Pilates 2.16ms / Yoga 14.6ms (7×). Pilates bar = 2160/14600 * 480 = 71 -->
    <rect x="220" y="2" width="71" height="18" fill="#10b981" rx="2"/>
    <text x="297" y="15" class="barLabel" fill="#10b981">2.16ms</text>
    <rect x="220" y="26" width="480" height="18" fill="#f97316" rx="2"/>
    <text x="708" y="39" class="barLabel" fill="#f97316">14.6ms</text>
    <text x="780" y="28" class="speedup">7× faster</text>
  </g>

  <!-- ROW 6: hotrelayout (Yoga wins) -->
  <g transform="translate(0, 380)">
    <text x="40" y="14" class="scenario">hot-relayout</text>
    <text x="40" y="30" class="scenarioSub">1k tree, mutate one leaf / frame</text>
    <!-- Pilates 129µs / Yoga 56µs. Pilates LOSES here. Yoga bar = 56/129 * 480 = 208; Pilates bar = full -->
    <rect x="220" y="2" width="480" height="18" fill="#10b981" rx="2"/>
    <text x="708" y="15" class="barLabel" fill="#10b981">129µs</text>
    <rect x="220" y="26" width="208" height="18" fill="#f97316" rx="2"/>
    <text x="434" y="39" class="barLabel" fill="#f97316">56µs</text>
    <text x="780" y="28" class="speedupRev">Yoga 2.3× faster</text>
  </g>

  <!-- ROW 7: hotrelayoutboundary (the headline) -->
  <g transform="translate(0, 436)">
    <!-- accent: highlight the headline row with a subtle background -->
    <rect x="20" y="-6" width="840" height="56" fill="#1e293b" rx="6"/>
    <text x="40" y="14" class="scenario">hot-relayout</text>
    <text x="40" y="30" class="scenarioSub">↑ same workload, with explicit-sized boundaries</text>
    <!-- Pilates 7.1µs / Yoga 51.1µs (7×). Pilates bar = 7.1/51.1 * 480 = 67 -->
    <rect x="220" y="2" width="67" height="18" fill="#10b981" rx="2"/>
    <text x="293" y="15" class="barLabel" fill="#10b981">7.1µs</text>
    <rect x="220" y="26" width="480" height="18" fill="#f97316" rx="2"/>
    <text x="708" y="39" class="barLabel" fill="#f97316">51.1µs</text>
    <text x="780" y="28" class="speedup">7× faster</text>
  </g>

  <!-- footer -->
  <text x="40" y="510" class="footnote">Reproduce: <tspan font-family="ui-monospace, 'SF Mono', Menlo, monospace" fill="#9ca3af">pnpm bench</tspan> in github.com/pilatesjs/pilates · Node 26, darwin/arm64 · machine numbers vary; relative positions are the signal</text>
  <text x="40" y="525" class="footnote">Phase 3 relayout boundaries (last row) close the one workload Yoga used to win — explicit-sized container nodes stop dirty propagation, root layout cache stays valid</text>
</svg>
